<?xml version="1.0" encoding="utf-8"?>
<!-- Generator: Adobe Illustrator 27.1.1, SVG Export Plug-In . SVG Version: 6.00 Build 0)  -->
<svg version="1.1" id="Layer_1" xmlns="http://www.w3.org/2000/svg" xmlns:xlink="http://www.w3.org/1999/xlink" x="0px" y="0px"
	 width="300px" height="300px" viewBox="0 0 300 300" style="enable-background:new 0 0 300 300;" xml:space="preserve">
<style type="text/css">
	.st0{fill:#FFFFFF;}
	.st1{fill:#010101;}
	.st2{fill:#5D6AB2;}
	.st3{fill:#231F20;}
	.st4{fill:none;stroke:#231F20;stroke-width:5.4;stroke-linecap:round;stroke-linejoin:round;stroke-miterlimit:10;}
</style>
<g>
	<g>
		<g>
			<g>
				<g>
					<path class="st0" d="M94.3,245.6c-8.3,0-15.1-6.8-15.1-15.1V106.7c0-0.6,0-1.3,0.1-2c0-0.1,0-0.3,0.1-0.5
						c0.1-0.7,0.2-1.2,0.4-1.8l0-0.1c0.2-0.6,0.4-1.3,0.7-1.9l0.1-0.2c0.3-0.7,0.6-1.2,1-1.8c0.4-0.6,0.8-1.2,1.3-1.7l0.1-0.2
						c1-1.1,2-2,3.2-2.7l0.1-0.1c0.6-0.4,1.2-0.7,1.7-0.9l0.2-0.1c1.9-0.8,3.9-1.2,6-1.2h111.4c2.1,0,4.2,0.4,6.2,1.3
						c0.5,0.2,1.1,0.5,1.6,0.8c0.2,0.1,0.3,0.2,0.4,0.2c0.5,0.3,1,0.7,1.5,1.1c0.1,0.1,0.2,0.2,0.3,0.2c0.4,0.4,0.8,0.7,1.1,1.1
						c0.2,0.2,0.3,0.3,0.4,0.4c0.4,0.5,0.8,1,1.1,1.5c0.1,0.1,0.1,0.2,0.2,0.3c0.3,0.5,0.6,1,0.8,1.4c0.1,0.2,0.1,0.3,0.2,0.4
						c0.3,0.6,0.5,1.2,0.7,1.8l0.1,0.2c0.1,0.5,0.3,1.1,0.4,1.7c0,0.2,0.1,0.3,0.1,0.5c0.1,0.7,0.1,1.4,0.1,2v123.8
						c0,8.3-6.8,15.1-15.1,15.1H94.3z"/>
					<g>
						<path class="st1" d="M205.7,94.3c1.8,0,3.5,0.4,5.1,1.1c0.5,0.2,0.9,0.4,1.3,0.7c0.1,0.1,0.2,0.1,0.3,0.2
							c0.4,0.3,0.9,0.6,1.2,0.9c0.1,0.1,0.2,0.2,0.3,0.2c0.3,0.3,0.6,0.6,0.9,0.9c0.1,0.1,0.2,0.2,0.3,0.3c0.3,0.4,0.6,0.8,0.9,1.2
							c0.1,0.1,0.1,0.2,0.2,0.3c0.2,0.4,0.4,0.8,0.6,1.1c0.1,0.1,0.1,0.2,0.2,0.3c0.2,0.5,0.4,1,0.6,1.5c0,0,0,0.1,0,0.2
							c0.1,0.5,0.2,0.9,0.3,1.4c0,0.1,0,0.3,0.1,0.4c0.1,0.5,0.1,1.1,0.1,1.6v123.8c0,6.8-5.5,12.4-12.4,12.4H94.3
							c-6.8,0-12.4-5.5-12.4-12.4V106.7c0-0.6,0-1.1,0.1-1.6c0-0.1,0-0.3,0.1-0.4c0.1-0.5,0.2-1,0.3-1.5c0,0,0,0,0-0.1
							c0.2-0.5,0.4-1,0.6-1.6c0-0.1,0.1-0.1,0.1-0.2c0.2-0.5,0.5-0.9,0.8-1.4c0,0,0,0,0,0c0.3-0.5,0.7-0.9,1-1.3
							c0,0,0.1-0.1,0.1-0.1c0.8-0.8,1.6-1.6,2.6-2.2c0,0,0,0,0.1,0c0.5-0.3,1-0.6,1.6-0.8c0,0,0,0,0.1,0c1.5-0.6,3.1-1,4.9-1H205.7
							 M205.7,88.9H94.3c-2.4,0-4.8,0.5-7,1.4l-0.1,0l-0.1,0l-0.3,0.1l0,0c-0.6,0.3-1.3,0.6-1.9,1l-0.1,0.1
							c-1.4,0.9-2.6,1.9-3.7,3.2c-0.1,0.1-0.1,0.1-0.2,0.2c-0.5,0.6-1,1.3-1.5,1.9L79.3,97l0,0.1c-0.4,0.6-0.7,1.2-1,1.9
							c-0.1,0.1-0.1,0.2-0.2,0.3c-0.3,0.7-0.6,1.5-0.8,2.2l0,0.2l0,0.1c-0.2,0.6-0.3,1.3-0.4,2c0,0.2-0.1,0.4-0.1,0.5
							c-0.1,0.8-0.2,1.6-0.2,2.3v123.8c0,9.8,8,17.8,17.8,17.8h111.4c9.8,0,17.8-8,17.8-17.8V106.7c0-0.7-0.1-1.5-0.2-2.3
							c0-0.2-0.1-0.4-0.1-0.6c-0.1-0.7-0.3-1.3-0.4-1.9c0-0.1-0.1-0.2-0.1-0.3c-0.2-0.7-0.5-1.4-0.8-2.1c-0.1-0.2-0.1-0.3-0.2-0.4
							l0-0.1c-0.3-0.5-0.6-1.1-0.9-1.6c-0.1-0.2-0.2-0.3-0.3-0.4c-0.4-0.6-0.8-1.1-1.3-1.7c-0.1-0.1-0.3-0.3-0.4-0.4l-0.1-0.1
							c-0.4-0.4-0.8-0.9-1.3-1.2c-0.1-0.1-0.3-0.2-0.4-0.3c-0.6-0.5-1.2-0.9-1.8-1.3c-0.1-0.1-0.2-0.2-0.4-0.2l-0.1,0
							c-0.7-0.4-1.3-0.7-1.9-1C210.7,89.4,208.2,88.9,205.7,88.9L205.7,88.9z"/>
					</g>
				</g>
				<g>
					<path class="st2" d="M112.9,109.4c-4.9,0-8.9-4-8.9-8.9v-5.6c0-8.7,7-15.7,15.7-15.7h2.9l0.3-1.4c2.2-11,10.1-19.8,19.9-22.4
						c2.4-0.6,4.8-1,7.3-1c13,0,24.3,9.2,26.9,22l0.6,2.8h2.9c8.5,0,15.7,7.2,15.7,15.7v5.6c0,4.9-4,8.9-8.9,8.9H112.9z"/>
					<path class="st1" d="M150,57.1c11.7,0,21.9,8.3,24.3,19.8l1,5h5.1c6.9,0,13,5.8,13,13v5.6c0,3.4-2.8,6.2-6.2,6.2h-74.3
						c-3.4,0-6.2-2.8-6.2-6.2v-5.6c0-7.2,5.8-13,13-13h5.1l0.7-3.5c1.9-9.5,8.6-17.9,18-20.4C145.6,57.4,147.8,57.1,150,57.1
						 M150,51.7c-2.7,0-5.3,0.4-8,1.1c-10.6,2.8-19.1,12.1-21.7,23.7h-0.7c-10.1,0-18.4,8.3-18.4,18.4v5.6c0,6.4,5.2,11.6,11.6,11.6
						h74.3c6.4,0,11.6-5.2,11.6-11.6v-5.6c0-10-8.4-18.4-18.4-18.4h-0.6l-0.1-0.6C176.7,61.9,164.3,51.7,150,51.7L150,51.7z"/>
				</g>
				<circle class="st1" cx="150" cy="81.9" r="6.2"/>
				<g>
					<circle class="st3" cx="117.2" cy="195.8" r="6.2"/>
					<line class="st4" x1="139.8" y1="152.8" x2="191.4" y2="152.8"/>
					<line class="st4" x1="139.8" y1="195.8" x2="193.3" y2="195.8"/>
					<polyline class="st4" points="98.8,149.6 109.2,160.2 135.6,135.2 					"/>
				</g>
			</g>
		</g>
	</g>
</g>
</svg>
